<svg xmlns="http://www.w3.org/2000/svg" width="902" height="568" viewBox="0 0 902 568">
<rect width="100%" height="100%" fill="#ffffff"/>
<text x="32" y="38" font-family="Arial, sans-serif" font-size="24" font-weight="700" fill="#182026">Risk-driver heatmap</text>
<text x="32" y="66" font-family="Arial, sans-serif" font-size="14" fill="#53606b">Normalized drivers used for briefing only. Darker warm cells show higher pressure for human review.</text>
<text x="168" y="96" font-family="Arial, sans-serif" font-size="12" fill="#27313a">Digital exclusion</text>
<text x="306" y="96" font-family="Arial, sans-serif" font-size="12" fill="#27313a">Unemployment pressure</text>
<text x="444" y="96" font-family="Arial, sans-serif" font-size="12" fill="#27313a">Climate exposure</text>
<text x="582" y="96" font-family="Arial, sans-serif" font-size="12" fill="#27313a">Education gap</text>
<text x="720" y="96" font-family="Arial, sans-serif" font-size="12" fill="#27313a">Governance gap</text>
<text x="32" y="142" font-family="Arial, sans-serif" font-size="13" fill="#27313a">HTI</text>
<rect x="164" y="118" width="128" height="30" rx="4" fill="#d89c2b"/>
<text x="174" y="139" font-family="Arial, sans-serif" font-size="12" fill="#182026">0.47</text>
<rect x="302" y="118" width="128" height="30" rx="4" fill="#c94c3a"/>
<text x="312" y="139" font-family="Arial, sans-serif" font-size="12" fill="#182026">0.72</text>
<rect x="440" y="118" width="128" height="30" rx="4" fill="#c94c3a"/>
<text x="450" y="139" font-family="Arial, sans-serif" font-size="12" fill="#182026">0.87</text>
<rect x="578" y="118" width="128" height="30" rx="4" fill="#6ba292"/>
<text x="588" y="139" font-family="Arial, sans-serif" font-size="12" fill="#182026">0.37</text>
<rect x="716" y="118" width="128" height="30" rx="4" fill="#c94c3a"/>
<text x="726" y="139" font-family="Arial, sans-serif" font-size="12" fill="#182026">0.63</text>
<text x="32" y="180" font-family="Arial, sans-serif" font-size="13" fill="#27313a">NPL</text>
<rect x="164" y="156" width="128" height="30" rx="4" fill="#6ba292"/>
<text x="174" y="177" font-family="Arial, sans-serif" font-size="12" fill="#182026">0.28</text>
<rect x="302" y="156" width="128" height="30" rx="4" fill="#d89c2b"/>
<text x="312" y="177" font-family="Arial, sans-serif" font-size="12" fill="#182026">0.55</text>
<rect x="440" y="156" width="128" height="30" rx="4" fill="#c94c3a"/>
<text x="450" y="177" font-family="Arial, sans-serif" font-size="12" fill="#182026">0.76</text>
<rect x="578" y="156" width="128" height="30" rx="4" fill="#6ba292"/>
<text x="588" y="177" font-family="Arial, sans-serif" font-size="12" fill="#182026">0.20</text>
<rect x="716" y="156" width="128" height="30" rx="4" fill="#d89c2b"/>
<text x="726" y="177" font-family="Arial, sans-serif" font-size="12" fill="#182026">0.42</text>
<text x="32" y="218" font-family="Arial, sans-serif" font-size="13" fill="#27313a">BGD</text>
<rect x="164" y="194" width="128" height="30" rx="4" fill="#d89c2b"/>
<text x="174" y="215" font-family="Arial, sans-serif" font-size="12" fill="#182026">0.41</text>
<rect x="302" y="194" width="128" height="30" rx="4" fill="#6ba292"/>
<text x="312" y="215" font-family="Arial, sans-serif" font-size="12" fill="#182026">0.26</text>
<rect x="440" y="194" width="128" height="30" rx="4" fill="#c94c3a"/>
<text x="450" y="215" font-family="Arial, sans-serif" font-size="12" fill="#182026">0.83</text>
<rect x="578" y="194" width="128" height="30" rx="4" fill="#6ba292"/>
<text x="588" y="215" font-family="Arial, sans-serif" font-size="12" fill="#182026">0.23</text>
<rect x="716" y="194" width="128" height="30" rx="4" fill="#6ba292"/>
<text x="726" y="215" font-family="Arial, sans-serif" font-size="12" fill="#182026">0.35</text>
<text x="32" y="256" font-family="Arial, sans-serif" font-size="13" fill="#27313a">RWA</text>
<rect x="164" y="232" width="128" height="30" rx="4" fill="#d89c2b"/>
<text x="174" y="253" font-family="Arial, sans-serif" font-size="12" fill="#182026">0.54</text>
<rect x="302" y="232" width="128" height="30" rx="4" fill="#d89c2b"/>
<text x="312" y="253" font-family="Arial, sans-serif" font-size="12" fill="#182026">0.58</text>
<rect x="440" y="232" width="128" height="30" rx="4" fill="#d89c2b"/>
<text x="450" y="253" font-family="Arial, sans-serif" font-size="12" fill="#182026">0.49</text>
<rect x="578" y="232" width="128" height="30" rx="4" fill="#dcefe9"/>
<text x="588" y="253" font-family="Arial, sans-serif" font-size="12" fill="#182026">0.19</text>
<rect x="716" y="232" width="128" height="30" rx="4" fill="#dcefe9"/>
<text x="726" y="253" font-family="Arial, sans-serif" font-size="12" fill="#182026">0.17</text>
<text x="32" y="294" font-family="Arial, sans-serif" font-size="13" fill="#27313a">KEN</text>
<rect x="164" y="270" width="128" height="30" rx="4" fill="#d89c2b"/>
<text x="174" y="291" font-family="Arial, sans-serif" font-size="12" fill="#182026">0.44</text>
<rect x="302" y="270" width="128" height="30" rx="4" fill="#6ba292"/>
<text x="312" y="291" font-family="Arial, sans-serif" font-size="12" fill="#182026">0.29</text>
<rect x="440" y="270" width="128" height="30" rx="4" fill="#c94c3a"/>
<text x="450" y="291" font-family="Arial, sans-serif" font-size="12" fill="#182026">0.64</text>
<rect x="578" y="270" width="128" height="30" rx="4" fill="#dcefe9"/>
<text x="588" y="291" font-family="Arial, sans-serif" font-size="12" fill="#182026">0.17</text>
<rect x="716" y="270" width="128" height="30" rx="4" fill="#6ba292"/>
<text x="726" y="291" font-family="Arial, sans-serif" font-size="12" fill="#182026">0.26</text>
<text x="32" y="332" font-family="Arial, sans-serif" font-size="13" fill="#27313a">TUN</text>
<rect x="164" y="308" width="128" height="30" rx="4" fill="#dcefe9"/>
<text x="174" y="329" font-family="Arial, sans-serif" font-size="12" fill="#182026">0.00</text>
<rect x="302" y="308" width="128" height="30" rx="4" fill="#c94c3a"/>
<text x="312" y="329" font-family="Arial, sans-serif" font-size="12" fill="#182026">0.76</text>
<rect x="440" y="308" width="128" height="30" rx="4" fill="#d89c2b"/>
<text x="450" y="329" font-family="Arial, sans-serif" font-size="12" fill="#182026">0.57</text>
<rect x="578" y="308" width="128" height="30" rx="4" fill="#dcefe9"/>
<text x="588" y="329" font-family="Arial, sans-serif" font-size="12" fill="#182026">0.07</text>
<rect x="716" y="308" width="128" height="30" rx="4" fill="#6ba292"/>
<text x="726" y="329" font-family="Arial, sans-serif" font-size="12" fill="#182026">0.29</text>
<text x="32" y="370" font-family="Arial, sans-serif" font-size="13" fill="#27313a">JOR</text>
<rect x="164" y="346" width="128" height="30" rx="4" fill="#dcefe9"/>
<text x="174" y="367" font-family="Arial, sans-serif" font-size="12" fill="#182026">0.00</text>
<rect x="302" y="346" width="128" height="30" rx="4" fill="#c94c3a"/>
<text x="312" y="367" font-family="Arial, sans-serif" font-size="12" fill="#182026">0.84</text>
<rect x="440" y="346" width="128" height="30" rx="4" fill="#d89c2b"/>
<text x="450" y="367" font-family="Arial, sans-serif" font-size="12" fill="#182026">0.52</text>
<rect x="578" y="346" width="128" height="30" rx="4" fill="#dcefe9"/>
<text x="588" y="367" font-family="Arial, sans-serif" font-size="12" fill="#182026">0.05</text>
<rect x="716" y="346" width="128" height="30" rx="4" fill="#dcefe9"/>
<text x="726" y="367" font-family="Arial, sans-serif" font-size="12" fill="#182026">0.14</text>
<text x="32" y="408" font-family="Arial, sans-serif" font-size="13" fill="#27313a">PER</text>
<rect x="164" y="384" width="128" height="30" rx="4" fill="#dcefe9"/>
<text x="174" y="405" font-family="Arial, sans-serif" font-size="12" fill="#182026">0.00</text>
<rect x="302" y="384" width="128" height="30" rx="4" fill="#6ba292"/>
<text x="312" y="405" font-family="Arial, sans-serif" font-size="12" fill="#182026">0.33</text>
<rect x="440" y="384" width="128" height="30" rx="4" fill="#c94c3a"/>
<text x="450" y="405" font-family="Arial, sans-serif" font-size="12" fill="#182026">0.68</text>
<rect x="578" y="384" width="128" height="30" rx="4" fill="#dcefe9"/>
<text x="588" y="405" font-family="Arial, sans-serif" font-size="12" fill="#182026">0.04</text>
<rect x="716" y="384" width="128" height="30" rx="4" fill="#6ba292"/>
<text x="726" y="405" font-family="Arial, sans-serif" font-size="12" fill="#182026">0.25</text>
<text x="32" y="446" font-family="Arial, sans-serif" font-size="13" fill="#27313a">FJI</text>
<rect x="164" y="422" width="128" height="30" rx="4" fill="#dcefe9"/>
<text x="174" y="443" font-family="Arial, sans-serif" font-size="12" fill="#182026">0.00</text>
<rect x="302" y="422" width="128" height="30" rx="4" fill="#6ba292"/>
<text x="312" y="443" font-family="Arial, sans-serif" font-size="12" fill="#182026">0.24</text>
<rect x="440" y="422" width="128" height="30" rx="4" fill="#c94c3a"/>
<text x="450" y="443" font-family="Arial, sans-serif" font-size="12" fill="#182026">0.81</text>
<rect x="578" y="422" width="128" height="30" rx="4" fill="#dcefe9"/>
<text x="588" y="443" font-family="Arial, sans-serif" font-size="12" fill="#182026">0.01</text>
<rect x="716" y="422" width="128" height="30" rx="4" fill="#dcefe9"/>
<text x="726" y="443" font-family="Arial, sans-serif" font-size="12" fill="#182026">0.12</text>
<text x="32" y="484" font-family="Arial, sans-serif" font-size="13" fill="#27313a">GHA</text>
<rect x="164" y="460" width="128" height="30" rx="4" fill="#dcefe9"/>
<text x="174" y="481" font-family="Arial, sans-serif" font-size="12" fill="#182026">0.09</text>
<rect x="302" y="460" width="128" height="30" rx="4" fill="#dcefe9"/>
<text x="312" y="481" font-family="Arial, sans-serif" font-size="12" fill="#182026">0.20</text>
<rect x="440" y="460" width="128" height="30" rx="4" fill="#d89c2b"/>
<text x="450" y="481" font-family="Arial, sans-serif" font-size="12" fill="#182026">0.48</text>
<rect x="578" y="460" width="128" height="30" rx="4" fill="#6ba292"/>
<text x="588" y="481" font-family="Arial, sans-serif" font-size="12" fill="#182026">0.21</text>
<rect x="716" y="460" width="128" height="30" rx="4" fill="#6ba292"/>
<text x="726" y="481" font-family="Arial, sans-serif" font-size="12" fill="#182026">0.22</text>
</svg>
